<svg viewBox="0 0 800 600" height="600" width="800" xmlns="http://www.w3.org/2000/svg" version="1.1"><rect x="0" y="0" width="800" height="600" fill="#ff0071ff"></rect><g transform-origin="400 300" transform="scale(1, 1)"><linearGradient id="linear-gradient-r2"><stop offset="0%" stop-color="#95ffda" stop-opacity="100%"></stop><stop offset="100%" stop-color="#95ffa1ff" stop-opacity="100%"></stop></linearGradient><filter id="shadow-r2" x="-20%" width="150%" y="-20%" height="150%"><feDropShadow dx="0" dy="0" stdDeviation="10" flood-color="#00000061"></feDropShadow></filter><path d="M0 0 C 0,510.7554102960663 -45.85219751512632,535.0542948401533 0,510.7554102960663 C 45.85219751512633,486.45652575197937 151.86691263911,446.0179946983233 229.2609875756316,389.2609875756316 C 306.65506251215317,332.50398045293986 320.9837897587258,304.8225721977341 386.97037468260777,226.97037468260774 C 452.9569596064898,149.1181771674814 524.7492046925549,45.394074936521555 559.1939121950417,0 L0 0Z" fill="none" stroke-linecap="round" filter="url(#shadow-r2)" stroke-width="1" style="transition: 0.4s cubic-bezier(0.16, 1, 0.3, 1); fill: url(&quot;#linear-gradient-r2&quot;);"></path></g><g transform-origin="400 300" transform="scale(-1, -1)"><linearGradient id="linear-gradient-r2"><stop offset="0%" stop-color="#95ffda" stop-opacity="100%"></stop><stop offset="100%" stop-color="#95ffa1ff" stop-opacity="100%"></stop></linearGradient><filter id="shadow-r2" x="-20%" width="150%" y="-20%" height="150%"><feDropShadow dx="0" dy="0" stdDeviation="10" flood-color="#00000061"></feDropShadow></filter><path d="M0 0 C 0,559.1939121950417 -44.399313756699364,594.6333808773506 0,559.1939121950417 C 44.39931375669937,523.7544435127327 150.95551281829052,454.79429525729887 221.9965687834968,381.9965687834968 C 293.0376247487031,309.1988423096947 317.55557164639856,271.6045935827308 355.20527982603136,195.2052798260314 C 392.85498800566415,118.805966069332 399.237143710535,39.041055965206276 410.2451096816609,0 L0 0Z" fill="none" stroke-linecap="round" filter="url(#shadow-r2)" stroke-width="1" style="transition: 0.4s cubic-bezier(0.16, 1, 0.3, 1); fill: url(&quot;#linear-gradient-r2&quot;);"></path></g></svg>