<svg id="visual" viewBox="0 0 900 600" width="900" height="600" xmlns="http://www.w3.org/2000/svg" xmlns:xlink="http://www.w3.org/1999/xlink" version="1.1"><rect x="0" y="0" width="900" height="600" fill="#001220"></rect><path d="M0 321L18.8 323C37.7 325 75.3 329 112.8 319C150.3 309 187.7 285 225.2 277.8C262.7 270.7 300.3 280.3 337.8 279.8C375.3 279.3 412.7 268.7 450.2 273.7C487.7 278.7 525.3 299.3 562.8 301.2C600.3 303 637.7 286 675.2 270.8C712.7 255.7 750.3 242.3 787.8 244.7C825.3 247 862.7 265 881.3 274L900 283L900 601L881.3 601C862.7 601 825.3 601 787.8 601C750.3 601 712.7 601 675.2 601C637.7 601 600.3 601 562.8 601C525.3 601 487.7 601 450.2 601C412.7 601 375.3 601 337.8 601C300.3 601 262.7 601 225.2 601C187.7 601 150.3 601 112.8 601C75.3 601 37.7 601 18.8 601L0 601Z" fill="#fa7268"></path><path d="M0 244L18.8 245.3C37.7 246.7 75.3 249.3 112.8 266C150.3 282.7 187.7 313.3 225.2 325.2C262.7 337 300.3 330 337.8 314.3C375.3 298.7 412.7 274.3 450.2 276.5C487.7 278.7 525.3 307.3 562.8 313C600.3 318.7 637.7 301.3 675.2 293.2C712.7 285 750.3 286 787.8 287.5C825.3 289 862.7 291 881.3 292L900 293L900 601L881.3 601C862.7 601 825.3 601 787.8 601C750.3 601 712.7 601 675.2 601C637.7 601 600.3 601 562.8 601C525.3 601 487.7 601 450.2 601C412.7 601 375.3 601 337.8 601C300.3 601 262.7 601 225.2 601C187.7 601 150.3 601 112.8 601C75.3 601 37.7 601 18.8 601L0 601Z" fill="#f46767"></path><path d="M0 347L18.8 344.5C37.7 342 75.3 337 112.8 336.2C150.3 335.3 187.7 338.7 225.2 348.7C262.7 358.7 300.3 375.3 337.8 371C375.3 366.7 412.7 341.3 450.2 334.8C487.7 328.3 525.3 340.7 562.8 336.8C600.3 333 637.7 313 675.2 316.2C712.7 319.3 750.3 345.7 787.8 357.2C825.3 368.7 862.7 365.3 881.3 363.7L900 362L900 601L881.3 601C862.7 601 825.3 601 787.8 601C750.3 601 712.7 601 675.2 601C637.7 601 600.3 601 562.8 601C525.3 601 487.7 601 450.2 601C412.7 601 375.3 601 337.8 601C300.3 601 262.7 601 225.2 601C187.7 601 150.3 601 112.8 601C75.3 601 37.7 601 18.8 601L0 601Z" fill="#ee5c67"></path><path d="M0 384L18.8 385.5C37.7 387 75.3 390 112.8 385.2C150.3 380.3 187.7 367.7 225.2 362.7C262.7 357.7 300.3 360.3 337.8 371.3C375.3 382.3 412.7 401.7 450.2 411C487.7 420.3 525.3 419.7 562.8 407.5C600.3 395.3 637.7 371.7 675.2 367.5C712.7 363.3 750.3 378.7 787.8 382.2C825.3 385.7 862.7 377.3 881.3 373.2L900 369L900 601L881.3 601C862.7 601 825.3 601 787.8 601C750.3 601 712.7 601 675.2 601C637.7 601 600.3 601 562.8 601C525.3 601 487.7 601 450.2 601C412.7 601 375.3 601 337.8 601C300.3 601 262.7 601 225.2 601C187.7 601 150.3 601 112.8 601C75.3 601 37.7 601 18.8 601L0 601Z" fill="#e75167"></path><path d="M0 425L18.8 424C37.7 423 75.3 421 112.8 416C150.3 411 187.7 403 225.2 402C262.7 401 300.3 407 337.8 415.7C375.3 424.3 412.7 435.7 450.2 431.2C487.7 426.7 525.3 406.3 562.8 397.3C600.3 388.3 637.7 390.7 675.2 394.8C712.7 399 750.3 405 787.8 404.2C825.3 403.3 862.7 395.7 881.3 391.8L900 388L900 601L881.3 601C862.7 601 825.3 601 787.8 601C750.3 601 712.7 601 675.2 601C637.7 601 600.3 601 562.8 601C525.3 601 487.7 601 450.2 601C412.7 601 375.3 601 337.8 601C300.3 601 262.7 601 225.2 601C187.7 601 150.3 601 112.8 601C75.3 601 37.7 601 18.8 601L0 601Z" fill="#df4667"></path><path d="M0 436L18.8 436.2C37.7 436.3 75.3 436.7 112.8 444.7C150.3 452.7 187.7 468.3 225.2 467.2C262.7 466 300.3 448 337.8 444.5C375.3 441 412.7 452 450.2 452.8C487.7 453.7 525.3 444.3 562.8 438.2C600.3 432 637.7 429 675.2 432.2C712.7 435.3 750.3 444.7 787.8 447.2C825.3 449.7 862.7 445.3 881.3 443.2L900 441L900 601L881.3 601C862.7 601 825.3 601 787.8 601C750.3 601 712.7 601 675.2 601C637.7 601 600.3 601 562.8 601C525.3 601 487.7 601 450.2 601C412.7 601 375.3 601 337.8 601C300.3 601 262.7 601 225.2 601C187.7 601 150.3 601 112.8 601C75.3 601 37.7 601 18.8 601L0 601Z" fill="#d73b67"></path><path d="M0 529L18.8 520.7C37.7 512.3 75.3 495.7 112.8 487C150.3 478.3 187.7 477.7 225.2 482.8C262.7 488 300.3 499 337.8 499.5C375.3 500 412.7 490 450.2 493C487.7 496 525.3 512 562.8 512.2C600.3 512.3 637.7 496.7 675.2 493.5C712.7 490.3 750.3 499.7 787.8 506.7C825.3 513.7 862.7 518.3 881.3 520.7L900 523L900 601L881.3 601C862.7 601 825.3 601 787.8 601C750.3 601 712.7 601 675.2 601C637.7 601 600.3 601 562.8 601C525.3 601 487.7 601 450.2 601C412.7 601 375.3 601 337.8 601C300.3 601 262.7 601 225.2 601C187.7 601 150.3 601 112.8 601C75.3 601 37.7 601 18.8 601L0 601Z" fill="#cf3068"></path><path d="M0 531L18.8 531.3C37.7 531.7 75.3 532.3 112.8 531.7C150.3 531 187.7 529 225.2 527.3C262.7 525.7 300.3 524.3 337.8 526C375.3 527.7 412.7 532.3 450.2 537.7C487.7 543 525.3 549 562.8 549.8C600.3 550.7 637.7 546.3 675.2 548.2C712.7 550 750.3 558 787.8 561.2C825.3 564.3 862.7 562.7 881.3 561.8L900 561L900 601L881.3 601C862.7 601 825.3 601 787.8 601C750.3 601 712.7 601 675.2 601C637.7 601 600.3 601 562.8 601C525.3 601 487.7 601 450.2 601C412.7 601 375.3 601 337.8 601C300.3 601 262.7 601 225.2 601C187.7 601 150.3 601 112.8 601C75.3 601 37.7 601 18.8 601L0 601Z" fill="#c62368"></path></svg>