<svg id="visual" viewBox="0 0 900 600" width="900" height="600" xmlns="http://www.w3.org/2000/svg" xmlns:xlink="http://www.w3.org/1999/xlink" version="1.1"><path d="M0 43L13.7 53C27.3 63 54.7 83 82 89C109.3 95 136.7 87 163.8 87C191 87 218 95 245.2 99C272.3 103 299.7 103 327 95C354.3 87 381.7 71 409 60C436.3 49 463.7 43 491 40C518.3 37 545.7 37 573 48C600.3 59 627.7 81 654.8 84C682 87 709 71 736.2 63C763.3 55 790.7 55 818 55C845.3 55 872.7 55 886.3 55L900 55L900 0L886.3 0C872.7 0 845.3 0 818 0C790.7 0 763.3 0 736.2 0C709 0 682 0 654.8 0C627.7 0 600.3 0 573 0C545.7 0 518.3 0 491 0C463.7 0 436.3 0 409 0C381.7 0 354.3 0 327 0C299.7 0 272.3 0 245.2 0C218 0 191 0 163.8 0C136.7 0 109.3 0 82 0C54.7 0 27.3 0 13.7 0L0 0Z" fill="#6198ff"></path><path d="M0 133L13.7 141C27.3 149 54.7 165 82 171C109.3 177 136.7 173 163.8 174C191 175 218 181 245.2 184C272.3 187 299.7 187 327 173C354.3 159 381.7 131 409 128C436.3 125 463.7 147 491 151C518.3 155 545.7 141 573 140C600.3 139 627.7 151 654.8 147C682 143 709 123 736.2 120C763.3 117 790.7 131 818 141C845.3 151 872.7 157 886.3 160L900 163L900 53L886.3 53C872.7 53 845.3 53 818 53C790.7 53 763.3 53 736.2 61C709 69 682 85 654.8 82C627.7 79 600.3 57 573 46C545.7 35 518.3 35 491 38C463.7 41 436.3 47 409 58C381.7 69 354.3 85 327 93C299.7 101 272.3 101 245.2 97C218 93 191 85 163.8 85C136.7 85 109.3 93 82 87C54.7 81 27.3 61 13.7 51L0 41Z" fill="#3c80ff"></path><path d="M0 277L13.7 284C27.3 291 54.7 305 82 303C109.3 301 136.7 283 163.8 275C191 267 218 269 245.2 274C272.3 279 299.7 287 327 285C354.3 283 381.7 271 409 266C436.3 261 463.7 263 491 250C518.3 237 545.7 209 573 216C600.3 223 627.7 265 654.8 262C682 259 709 211 736.2 211C763.3 211 790.7 259 818 272C845.3 285 872.7 263 886.3 252L900 241L900 161L886.3 158C872.7 155 845.3 149 818 139C790.7 129 763.3 115 736.2 118C709 121 682 141 654.8 145C627.7 149 600.3 137 573 138C545.7 139 518.3 153 491 149C463.7 145 436.3 123 409 126C381.7 129 354.3 157 327 171C299.7 185 272.3 185 245.2 182C218 179 191 173 163.8 172C136.7 171 109.3 175 82 169C54.7 163 27.3 147 13.7 139L0 131Z" fill="#0066ff"></path><path d="M0 457L13.7 447C27.3 437 54.7 417 82 401C109.3 385 136.7 373 163.8 378C191 383 218 405 245.2 416C272.3 427 299.7 427 327 431C354.3 435 381.7 443 409 456C436.3 469 463.7 487 491 461C518.3 435 545.7 365 573 357C600.3 349 627.7 403 654.8 425C682 447 709 437 736.2 430C763.3 423 790.7 419 818 409C845.3 399 872.7 383 886.3 375L900 367L900 239L886.3 250C872.7 261 845.3 283 818 270C790.7 257 763.3 209 736.2 209C709 209 682 257 654.8 260C627.7 263 600.3 221 573 214C545.7 207 518.3 235 491 248C463.7 261 436.3 259 409 264C381.7 269 354.3 281 327 283C299.7 285 272.3 277 245.2 272C218 267 191 265 163.8 273C136.7 281 109.3 299 82 301C54.7 303 27.3 289 13.7 282L0 275Z" fill="#0059dd"></path><path d="M0 601L13.7 601C27.3 601 54.7 601 82 601C109.3 601 136.7 601 163.8 601C191 601 218 601 245.2 601C272.3 601 299.7 601 327 601C354.3 601 381.7 601 409 601C436.3 601 463.7 601 491 601C518.3 601 545.7 601 573 601C600.3 601 627.7 601 654.8 601C682 601 709 601 736.2 601C763.3 601 790.7 601 818 601C845.3 601 872.7 601 886.3 601L900 601L900 365L886.3 373C872.7 381 845.3 397 818 407C790.7 417 763.3 421 736.2 428C709 435 682 445 654.8 423C627.7 401 600.3 347 573 355C545.7 363 518.3 433 491 459C463.7 485 436.3 467 409 454C381.7 441 354.3 433 327 429C299.7 425 272.3 425 245.2 414C218 403 191 381 163.8 376C136.7 371 109.3 383 82 399C54.7 415 27.3 435 13.7 445L0 455Z" fill="#004cbb"></path></svg>