<svg id="visual" viewBox="0 0 900 600" width="900" height="600" xmlns="http://www.w3.org/2000/svg" xmlns:xlink="http://www.w3.org/1999/xlink" version="1.1"><rect x="0" y="0" width="900" height="600" fill="#001220"></rect><path d="M0 385L21.5 393.8C43 402.7 86 420.3 128.8 419.8C171.7 419.3 214.3 400.7 257.2 393.5C300 386.3 343 390.7 385.8 393C428.7 395.3 471.3 395.7 514.2 402.7C557 409.7 600 423.3 642.8 427.7C685.7 432 728.3 427 771.2 417.7C814 408.3 857 394.7 878.5 387.8L900 381L900 601L878.5 601C857 601 814 601 771.2 601C728.3 601 685.7 601 642.8 601C600 601 557 601 514.2 601C471.3 601 428.7 601 385.8 601C343 601 300 601 257.2 601C214.3 601 171.7 601 128.8 601C86 601 43 601 21.5 601L0 601Z" fill="#fa7268"></path><path d="M0 413L21.5 410C43 407 86 401 128.8 404.7C171.7 408.3 214.3 421.7 257.2 426.2C300 430.7 343 426.3 385.8 422.3C428.7 418.3 471.3 414.7 514.2 412C557 409.3 600 407.7 642.8 406C685.7 404.3 728.3 402.7 771.2 414C814 425.3 857 449.7 878.5 461.8L900 474L900 601L878.5 601C857 601 814 601 771.2 601C728.3 601 685.7 601 642.8 601C600 601 557 601 514.2 601C471.3 601 428.7 601 385.8 601C343 601 300 601 257.2 601C214.3 601 171.7 601 128.8 601C86 601 43 601 21.5 601L0 601Z" fill="#ef5f67"></path><path d="M0 487L21.5 487.2C43 487.3 86 487.7 128.8 481.7C171.7 475.7 214.3 463.3 257.2 458.8C300 454.3 343 457.7 385.8 459.3C428.7 461 471.3 461 514.2 466.3C557 471.7 600 482.3 642.8 488C685.7 493.7 728.3 494.3 771.2 485C814 475.7 857 456.3 878.5 446.7L900 437L900 601L878.5 601C857 601 814 601 771.2 601C728.3 601 685.7 601 642.8 601C600 601 557 601 514.2 601C471.3 601 428.7 601 385.8 601C343 601 300 601 257.2 601C214.3 601 171.7 601 128.8 601C86 601 43 601 21.5 601L0 601Z" fill="#e34c67"></path><path d="M0 538L21.5 532.8C43 527.7 86 517.3 128.8 513.5C171.7 509.7 214.3 512.3 257.2 510.8C300 509.3 343 503.7 385.8 498.7C428.7 493.7 471.3 489.3 514.2 489.2C557 489 600 493 642.8 495.5C685.7 498 728.3 499 771.2 497.5C814 496 857 492 878.5 490L900 488L900 601L878.5 601C857 601 814 601 771.2 601C728.3 601 685.7 601 642.8 601C600 601 557 601 514.2 601C471.3 601 428.7 601 385.8 601C343 601 300 601 257.2 601C214.3 601 171.7 601 128.8 601C86 601 43 601 21.5 601L0 601Z" fill="#d53867"></path><path d="M0 570L21.5 567C43 564 86 558 128.8 553.5C171.7 549 214.3 546 257.2 544.7C300 543.3 343 543.7 385.8 545C428.7 546.3 471.3 548.7 514.2 551.7C557 554.7 600 558.3 642.8 557.7C685.7 557 728.3 552 771.2 546.3C814 540.7 857 534.3 878.5 531.2L900 528L900 601L878.5 601C857 601 814 601 771.2 601C728.3 601 685.7 601 642.8 601C600 601 557 601 514.2 601C471.3 601 428.7 601 385.8 601C343 601 300 601 257.2 601C214.3 601 171.7 601 128.8 601C86 601 43 601 21.5 601L0 601Z" fill="#c62368"></path></svg>