<svg id="visual" viewBox="0 0 900 600" width="900" height="600" xmlns="http://www.w3.org/2000/svg" xmlns:xlink="http://www.w3.org/1999/xlink" version="1.1"><rect x="0" y="0" width="900" height="600" fill="#001220"></rect><defs><linearGradient id="grad1_0" x1="33.3%" y1="0%" x2="100%" y2="100%"><stop offset="20%" stop-color="#001220" stop-opacity="1"></stop><stop offset="80%" stop-color="#001220" stop-opacity="1"></stop></linearGradient></defs><defs><linearGradient id="grad2_0" x1="0%" y1="0%" x2="66.7%" y2="100%"><stop offset="20%" stop-color="#001220" stop-opacity="1"></stop><stop offset="80%" stop-color="#001220" stop-opacity="1"></stop></linearGradient></defs><g transform="translate(900, 0)"><path d="M0 486.7C-66.8 483.4 -133.5 480.1 -186.3 449.7C-239 419.3 -277.7 361.7 -311.1 311.1C-344.5 260.5 -372.6 216.8 -401 166.1C-429.3 115.4 -458 57.7 -486.7 0L0 0Z" fill="#FBAE3C"></path></g><g transform="translate(0, 600)"><path d="M0 -486.7C62.9 -466.1 125.7 -445.5 169.9 -410.2C214.1 -374.9 239.5 -324.9 289.2 -289.2C338.9 -253.5 412.7 -232.1 449.7 -186.3C486.7 -140.5 486.7 -70.2 486.7 0L0 0Z" fill="#FBAE3C"></path></g></svg>