<svg id="visual" viewBox="0 0 900 600" width="900" height="600" xmlns="http://www.w3.org/2000/svg" xmlns:xlink="http://www.w3.org/1999/xlink" version="1.1"><rect x="0" y="0" width="900" height="600" fill="#002233"></rect><path d="M0 414L21.5 412C43 410 86 406 128.8 423.7C171.7 441.3 214.3 480.7 257.2 495.7C300 510.7 343 501.3 385.8 497.8C428.7 494.3 471.3 496.7 514.2 501.2C557 505.7 600 512.3 642.8 512.5C685.7 512.7 728.3 506.3 771.2 502.7C814 499 857 498 878.5 497.5L900 497L900 601L878.5 601C857 601 814 601 771.2 601C728.3 601 685.7 601 642.8 601C600 601 557 601 514.2 601C471.3 601 428.7 601 385.8 601C343 601 300 601 257.2 601C214.3 601 171.7 601 128.8 601C86 601 43 601 21.5 601L0 601Z" fill="#0066FF" stroke-linecap="round" stroke-linejoin="miter"></path></svg>