<svg id="visual" viewBox="0 0 900 600" width="900" height="600" xmlns="http://www.w3.org/2000/svg" xmlns:xlink="http://www.w3.org/1999/xlink" version="1.1"><path d="M0 301L82 109L164 103L245 181L327 109L409 253L491 139L573 259L655 157L736 157L818 127L900 163L900 0L818 0L736 0L655 0L573 0L491 0L409 0L327 0L245 0L164 0L82 0L0 0Z" fill="#00cc8e"></path><path d="M0 373L82 175L164 211L245 307L327 199L409 355L491 205L573 313L655 283L736 313L818 199L900 259L900 161L818 125L736 155L655 155L573 257L491 137L409 251L327 107L245 179L164 101L82 107L0 299Z" fill="#00b98a"></path><path d="M0 421L82 277L164 325L245 355L327 253L409 421L491 319L573 385L655 355L736 391L818 259L900 361L900 257L818 197L736 311L655 281L573 311L491 203L409 353L327 197L245 305L164 209L82 173L0 371Z" fill="#00a784"></path><path d="M0 535L82 517L164 547L245 523L327 511L409 547L491 547L573 547L655 547L736 559L818 511L900 505L900 359L818 257L736 389L655 353L573 383L491 317L409 419L327 251L245 353L164 323L82 275L0 419Z" fill="#00957c"></path><path d="M0 601L82 601L164 601L245 601L327 601L409 601L491 601L573 601L655 601L736 601L818 601L900 601L900 503L818 509L736 557L655 545L573 545L491 545L409 545L327 509L245 521L164 545L82 515L0 533Z" fill="#038373"></path></svg>