<svg id="visual" viewBox="0 0 900 600" width="900" height="600" xmlns="http://www.w3.org/2000/svg" xmlns:xlink="http://www.w3.org/1999/xlink" version="1.1"><path d="M0 223L13.7 202C27.3 181 54.7 139 82 126C109.3 113 136.7 129 163.8 131C191 133 218 121 245.2 129C272.3 137 299.7 165 327 163C354.3 161 381.7 129 409 133C436.3 137 463.7 177 491 200C518.3 223 545.7 229 573 219C600.3 209 627.7 183 654.8 166C682 149 709 141 736.2 144C763.3 147 790.7 161 818 175C845.3 189 872.7 203 886.3 210L900 217L900 0L886.3 0C872.7 0 845.3 0 818 0C790.7 0 763.3 0 736.2 0C709 0 682 0 654.8 0C627.7 0 600.3 0 573 0C545.7 0 518.3 0 491 0C463.7 0 436.3 0 409 0C381.7 0 354.3 0 327 0C299.7 0 272.3 0 245.2 0C218 0 191 0 163.8 0C136.7 0 109.3 0 82 0C54.7 0 27.3 0 13.7 0L0 0Z" fill="#6198ff"></path><path d="M0 349L13.7 344C27.3 339 54.7 329 82 320C109.3 311 136.7 303 163.8 296C191 289 218 283 245.2 283C272.3 283 299.7 289 327 303C354.3 317 381.7 339 409 352C436.3 365 463.7 369 491 374C518.3 379 545.7 385 573 387C600.3 389 627.7 387 654.8 371C682 355 709 325 736.2 317C763.3 309 790.7 323 818 330C845.3 337 872.7 337 886.3 337L900 337L900 215L886.3 208C872.7 201 845.3 187 818 173C790.7 159 763.3 145 736.2 142C709 139 682 147 654.8 164C627.7 181 600.3 207 573 217C545.7 227 518.3 221 491 198C463.7 175 436.3 135 409 131C381.7 127 354.3 159 327 161C299.7 163 272.3 135 245.2 127C218 119 191 131 163.8 129C136.7 127 109.3 111 82 124C54.7 137 27.3 179 13.7 200L0 221Z" fill="#3c80ff"></path><path d="M0 415L13.7 413C27.3 411 54.7 407 82 397C109.3 387 136.7 371 163.8 367C191 363 218 371 245.2 379C272.3 387 299.7 395 327 406C354.3 417 381.7 431 409 438C436.3 445 463.7 445 491 443C518.3 441 545.7 437 573 437C600.3 437 627.7 441 654.8 435C682 429 709 413 736.2 408C763.3 403 790.7 409 818 421C845.3 433 872.7 451 886.3 460L900 469L900 335L886.3 335C872.7 335 845.3 335 818 328C790.7 321 763.3 307 736.2 315C709 323 682 353 654.8 369C627.7 385 600.3 387 573 385C545.7 383 518.3 377 491 372C463.7 367 436.3 363 409 350C381.7 337 354.3 315 327 301C299.7 287 272.3 281 245.2 281C218 281 191 287 163.8 294C136.7 301 109.3 309 82 318C54.7 327 27.3 337 13.7 342L0 347Z" fill="#0066ff"></path><path d="M0 499L13.7 506C27.3 513 54.7 527 82 529C109.3 531 136.7 521 163.8 517C191 513 218 515 245.2 515C272.3 515 299.7 513 327 519C354.3 525 381.7 539 409 541C436.3 543 463.7 533 491 524C518.3 515 545.7 507 573 504C600.3 501 627.7 503 654.8 505C682 507 709 509 736.2 510C763.3 511 790.7 511 818 520C845.3 529 872.7 547 886.3 556L900 565L900 467L886.3 458C872.7 449 845.3 431 818 419C790.7 407 763.3 401 736.2 406C709 411 682 427 654.8 433C627.7 439 600.3 435 573 435C545.7 435 518.3 439 491 441C463.7 443 436.3 443 409 436C381.7 429 354.3 415 327 404C299.7 393 272.3 385 245.2 377C218 369 191 361 163.8 365C136.7 369 109.3 385 82 395C54.7 405 27.3 409 13.7 411L0 413Z" fill="#0059dd"></path><path d="M0 601L13.7 601C27.3 601 54.7 601 82 601C109.3 601 136.7 601 163.8 601C191 601 218 601 245.2 601C272.3 601 299.7 601 327 601C354.3 601 381.7 601 409 601C436.3 601 463.7 601 491 601C518.3 601 545.7 601 573 601C600.3 601 627.7 601 654.8 601C682 601 709 601 736.2 601C763.3 601 790.7 601 818 601C845.3 601 872.7 601 886.3 601L900 601L900 563L886.3 554C872.7 545 845.3 527 818 518C790.7 509 763.3 509 736.2 508C709 507 682 505 654.8 503C627.7 501 600.3 499 573 502C545.7 505 518.3 513 491 522C463.7 531 436.3 541 409 539C381.7 537 354.3 523 327 517C299.7 511 272.3 513 245.2 513C218 513 191 511 163.8 515C136.7 519 109.3 529 82 527C54.7 525 27.3 511 13.7 504L0 497Z" fill="#004cbb"></path></svg>