<svg id="visual" viewBox="0 0 900 600" width="900" height="600" xmlns="http://www.w3.org/2000/svg" xmlns:xlink="http://www.w3.org/1999/xlink" version="1.1"><path d="M0 205L82 205L82 151L164 151L164 181L245 181L245 187L327 187L327 157L409 157L409 223L491 223L491 229L573 229L573 169L655 169L655 223L736 223L736 247L818 247L818 133L900 133L900 151L900 0L900 0L818 0L818 0L736 0L736 0L655 0L655 0L573 0L573 0L491 0L491 0L409 0L409 0L327 0L327 0L245 0L245 0L164 0L164 0L82 0L82 0L0 0Z" fill="#fa7268"></path><path d="M0 283L82 283L82 205L164 205L164 253L245 253L245 283L327 283L327 217L409 217L409 313L491 313L491 289L573 289L573 241L655 241L655 295L736 295L736 283L818 283L818 193L900 193L900 241L900 149L900 131L818 131L818 245L736 245L736 221L655 221L655 167L573 167L573 227L491 227L491 221L409 221L409 155L327 155L327 185L245 185L245 179L164 179L164 149L82 149L82 203L0 203Z" fill="#ea5e66"></path><path d="M0 397L82 397L82 361L164 361L164 373L245 373L245 487L327 487L327 355L409 355L409 421L491 421L491 385L573 385L573 379L655 379L655 421L736 421L736 409L818 409L818 397L900 397L900 397L900 239L900 191L818 191L818 281L736 281L736 293L655 293L655 239L573 239L573 287L491 287L491 311L409 311L409 215L327 215L327 281L245 281L245 251L164 251L164 203L82 203L82 281L0 281Z" fill="#d84a64"></path><path d="M0 517L82 517L82 457L164 457L164 481L245 481L245 535L327 535L327 481L409 481L409 529L491 529L491 505L573 505L573 475L655 475L655 529L736 529L736 523L818 523L818 487L900 487L900 481L900 395L900 395L818 395L818 407L736 407L736 419L655 419L655 377L573 377L573 383L491 383L491 419L409 419L409 353L327 353L327 485L245 485L245 371L164 371L164 359L82 359L82 395L0 395Z" fill="#c53762"></path><path d="M0 601L82 601L82 601L164 601L164 601L245 601L245 601L327 601L327 601L409 601L409 601L491 601L491 601L573 601L573 601L655 601L655 601L736 601L736 601L818 601L818 601L900 601L900 601L900 479L900 485L818 485L818 521L736 521L736 527L655 527L655 473L573 473L573 503L491 503L491 527L409 527L409 479L327 479L327 533L245 533L245 479L164 479L164 455L82 455L82 515L0 515Z" fill="#b0235f"></path></svg>