<svg id="visual" viewBox="0 0 900 600" width="900" height="600" xmlns="http://www.w3.org/2000/svg" xmlns:xlink="http://www.w3.org/1999/xlink" version="1.1"><rect x="0" y="0" width="900" height="600" fill="#002233"></rect><path d="M0 352L21.5 338.2C43 324.3 86 296.7 128.8 302.3C171.7 308 214.3 347 257.2 347.8C300 348.7 343 311.3 385.8 307.2C428.7 303 471.3 332 514.2 331C557 330 600 299 642.8 308C685.7 317 728.3 366 771.2 392C814 418 857 421 878.5 422.5L900 424L900 601L878.5 601C857 601 814 601 771.2 601C728.3 601 685.7 601 642.8 601C600 601 557 601 514.2 601C471.3 601 428.7 601 385.8 601C343 601 300 601 257.2 601C214.3 601 171.7 601 128.8 601C86 601 43 601 21.5 601L0 601Z" fill="#0066FF" stroke-linecap="round" stroke-linejoin="miter"></path></svg>