<svg viewBox="0 0 800 600" height="600" width="800" xmlns="http://www.w3.org/2000/svg" version="1.1"><g transform-origin="center" transform="scale(1, 1) rotate(0)"><rect x="0" y="0" width="800" height="600" fill="#002438"></rect><linearGradient id="linear-gradient-r0"><stop offset="0%" stop-color="#3b6bffff" stop-opacity="100%"></stop><stop offset="100%" stop-color="#255affff" stop-opacity="100%"></stop></linearGradient><filter id="shadow-r0" x="0" width="100%" y="-20%" height="150%"><feDropShadow dx="0" dy="0" stdDeviation="10" flood-color="#00000061"></feDropShadow></filter><path d="M0 0 C 0,301.1587048647925 -40,305.62742756679654 0,301.1587048647925 C 40,296.6899821627885 119.99999999999999,277.7203793404624 200,278.81509135477245 C 280,279.9098033690825 320,303.43612033873796 400,306.63226493634284 C 480,309.8284095339477 520,301.3654668163508 600,294.7958143427968 C 680,288.2261618692428 760,277.98636492341757 800,273.78400256857276 L800 600 L0 600Z" fill="none" stroke-linecap="round" stroke-width="1" style="transition: 0.4s cubic-bezier(0.16, 1, 0.3, 1); fill: url(&quot;#linear-gradient-r0&quot;);" filter="url(#shadow-r0)"></path><path d="M0 0 C 0,390.97216287627816 -40,385.9167732546727 0,390.97216287627816 C 40,396.0275524978836 120,425.30427249148494 200,416.24911098430556 C 280,407.19394947712624 320,353.4256400292118 400,345.69635534038144 C 480,337.96707065155107 520,364.1302924230695 600,377.6026875401537 C 680,391.0750826572379 760,405.96720224867266 800,413.0583309258024 L800 600 L0 600Z" fill="none" stroke-linecap="round" stroke-width="1" style="transition: 0.4s cubic-bezier(0.16, 1, 0.3, 1); fill: url(&quot;#linear-gradient-r0&quot;);" filter="url(#shadow-r0)"></path><path d="M0 0 C 0,528.7093526761358 -40,538.1964966033896 0,528.7093526761358 C 40,519.222208748882 119.99999999999999,485.323201213032 200,481.27363303986687 C 280,477.2240648667017 320,501.1547876832386 400,508.4615118103102 C 480,515.7682359373817 520,535.9177645140637 600,517.8072536752248 C 680,499.6967428363859 760,437.8886168279375 800,417.90895761611563 L800 600 L0 600Z" fill="none" stroke-linecap="round" stroke-width="1" style="transition: 0.4s cubic-bezier(0.16, 1, 0.3, 1); fill: url(&quot;#linear-gradient-r0&quot;);" filter="url(#shadow-r0)"></path></g></svg>