<?xml version="1.0" standalone="no"?>
<!DOCTYPE svg PUBLIC "-//W3C//DTD SVG 20010904//EN"
 "http://www.w3.org/TR/2001/REC-SVG-20010904/DTD/svg10.dtd">
<svg version="1.0" xmlns="http://www.w3.org/2000/svg"
 width="700.000000pt" height="700.000000pt" viewBox="0 0 700.000000 700.000000"
 preserveAspectRatio="xMidYMid meet">
<metadata>
Created by potrace 1.14, written by Peter Selinger 2001-2017
</metadata>
<g transform="translate(0.000000,700.000000) scale(0.100000,-0.100000)"
fill="#000000" stroke="none">
<path d="M3278 6996 c-1 -2 -42 -6 -89 -10 -47 -4 -95 -8 -105 -10 -10 -2 -48
-7 -84 -12 -36 -4 -67 -8 -70 -9 -3 -1 -25 -5 -50 -9 -170 -30 -506 -123 -615
-171 -16 -7 -61 -25 -100 -40 -101 -39 -327 -151 -418 -207 -43 -26 -81 -48
-84 -48 -6 0 -209 -136 -223 -150 -3 -3 -43 -34 -90 -70 -47 -35 -98 -76 -114
-90 -504 -438 -854 -957 -1060 -1572 -31 -94 -79 -267 -91 -329 -3 -13 -12
-58 -20 -99 -8 -41 -17 -89 -19 -105 -3 -17 -7 -45 -11 -64 -8 -47 -16 -124
-20 -208 -2 -58 1 -81 20 -121 30 -64 77 -113 140 -143 l50 -24 636 -3 c624
-3 638 -2 692 18 72 27 147 95 180 162 32 67 33 70 57 188 74 364 292 724 584
968 326 271 700 408 1121 409 291 2 529 -55 793 -188 500 -252 836 -706 938
-1269 28 -153 27 -414 -1 -575 -28 -160 -62 -279 -117 -404 -44 -101 -123
-247 -145 -269 -7 -7 -13 -17 -13 -22 0 -5 -6 -15 -13 -22 -7 -7 -27 -33 -44
-57 -55 -75 -155 -182 -243 -259 -239 -209 -532 -349 -850 -407 -19 -4 -39 -8
-45 -9 -5 -1 -31 -12 -57 -23 -65 -30 -133 -95 -165 -162 l-28 -56 0 -640 c0
-352 3 -652 7 -666 29 -117 138 -203 258 -203 59 -1 177 9 226 18 11 2 39 7
64 11 629 96 1272 401 1760 835 128 114 311 303 381 395 13 17 26 32 30 35 6
5 163 219 186 256 7 10 25 37 39 59 87 130 225 400 292 570 78 197 161 477
186 625 3 19 8 49 11 65 16 87 25 145 30 195 3 30 8 73 11 95 9 66 12 545 3
615 -4 36 -10 90 -13 120 -4 30 -8 66 -10 80 -12 88 -19 129 -26 160 -5 19
-12 51 -15 70 -11 63 -64 269 -79 305 -8 19 -13 35 -11 35 3 0 -1 17 -9 38 -8
20 -26 69 -40 107 -14 39 -31 84 -37 100 -7 17 -13 32 -14 35 -6 22 -61 139
-122 258 -244 477 -610 907 -1033 1215 -58 42 -110 81 -117 87 -7 5 -16 10
-22 10 -5 0 -11 4 -13 8 -6 16 -243 153 -382 221 -320 157 -670 269 -991 317
-27 4 -57 9 -65 10 -8 2 -44 6 -80 9 -36 4 -76 9 -90 12 -27 5 -536 14 -542 9z"/>
<path d="M1944 3479 c-66 -25 -137 -91 -166 -154 l-23 -50 -2 -646 -3 -646 31
-61 c36 -73 92 -124 166 -152 53 -20 76 -20 681 -19 610 0 628 1 682 21 69 27
141 99 169 170 19 51 20 72 18 698 l-2 645 -29 53 c-33 60 -76 101 -139 134
l-42 23 -645 2 c-619 2 -647 1 -696 -18z"/>
<path d="M225 1741 c-88 -22 -171 -98 -204 -186 -21 -55 -21 -70 -20 -683 0
-602 1 -629 20 -680 28 -71 99 -143 169 -170 54 -21 67 -21 695 -19 l640 2 50
23 c54 25 145 114 145 141 0 9 6 23 13 30 9 9 12 158 12 674 l0 662 -23 42
c-35 66 -79 110 -140 140 l-57 28 -635 2 c-349 1 -648 -2 -665 -6z"/>
</g>
</svg>
